<?xml version="1.0" encoding="UTF-8"?><!DOCTYPE svg PUBLIC "-//W3C//DTD SVG 1.1//EN" "http://www.w3.org/Graphics/SVG/1.1/DTD/svg11.dtd"><svg xmlns="http://www.w3.org/2000/svg" xmlns:xlink="http://www.w3.org/1999/xlink"><symbol id="favorite" viewBox="0 0 18 18"><g fill="none"><path d="M9 16.012l-1.088-.99C4.05 11.52 1.5 9.21 1.5 6.376A4.085 4.085 0 015.625 2.25c1.305 0 2.557.607 3.375 1.567a4.491 4.491 0 013.375-1.567A4.085 4.085 0 0116.5 6.375c0 2.835-2.55 5.145-6.412 8.655L9 16.012z" fill="#A7A7A7"/></g></symbol><symbol id="location-icon" viewBox="0 0 32 32"><path d="M7.554 18.564l14.393-9.97a.592.592 0 01.905.703l-6.076 16.42c-.206.557-.963.606-1.162.076l-1.93-5.121a.568.568 0 00-.474-.368l-5.44-.595c-.563-.062-.704-.807-.216-1.145z" fill="#A7A7A7"/><rect x=".5" y=".5" width="31" height="31" rx="15.5"/></symbol><symbol id="logo" viewBox="0 0 88 24"><path d="M7.851 17.498h2.51c-.174 1.172-.692 2.113-1.555 2.823-.852.71-1.942 1.065-3.27 1.065-1.737 0-3.097-.543-4.08-1.63C.487 18.66 0 17.214 0 15.417c0-1.796.491-3.237 1.473-4.324.982-1.097 2.336-1.645 4.063-1.645 1.263 0 2.315.328 3.157.984.842.645 1.36 1.506 1.554 2.581H7.72c-.27-.946-.998-1.42-2.185-1.42-.993 0-1.753.36-2.282 1.082-.518.71-.777 1.624-.777 2.742 0 1.12.259 2.039.777 2.76.529.71 1.29 1.064 2.282 1.064.615 0 1.123-.15 1.522-.451.41-.312.674-.743.793-1.291zM22.012 9.656v2.114h-3.594v9.407h-2.412V11.77h-3.593V9.656h9.599zM28.69 14.82h.453l2.444-5.164h2.444l-5.536 11.52h-2.412l1.651-3.452-4.273-8.068h2.525l2.703 5.163zM45.164 19.03h1.65V24h-2.346v-2.823h-7.592V24h-2.347v-4.97h1.197c.918-1.624 1.376-3.904 1.376-6.84V9.656h8.062v9.375zm-2.348 0v-7.228h-3.48v1.017c0 2.689-.388 4.76-1.165 6.212h4.645zM49.556 9.656h2.25v8.035h.42l4.161-8.035h3.254v11.52h-2.267v-8.212h-.42l-4.258 8.213h-3.14V9.657zM64.337 21.177V9.657h2.412v4.501h2.735l2.12-4.502h2.494l-2.59 5.6 2.735 5.92h-2.492l-2.25-4.84h-2.752v4.84h-2.412zM85.556 21.177l-.94-3.114h-4.402l-.94 3.114h-2.379l3.675-11.52h3.74L88 21.176h-2.444zm-3.513-9.213l-1.214 4.001h3.14l-1.214-4.001h-.712zM38.158 0H35.63l-3.035 6.05h2.53L38.157 0z" fill="#222"/></symbol><symbol id="search-icon" viewBox="0 0 17 17"><g fill="none"><path fill-rule="evenodd" clip-rule="evenodd" d="M1.7 7.65a5.95 5.95 0 1110.236 4.127.848.848 0 00-.159.159A5.95 5.95 0 011.7 7.65zm10.725 5.977a7.65 7.65 0 111.202-1.202l3.124 3.124a.85.85 0 01-1.202 1.202l-3.124-3.124z" fill="#A7A7A7"/></g></symbol></svg>